<?xml version="1.0" standalone="no"?>
<!DOCTYPE svg PUBLIC "-//W3C//DTD SVG 20010904//EN"
 "http://www.w3.org/TR/2001/REC-SVG-20010904/DTD/svg10.dtd">
<svg version="1.0" xmlns="http://www.w3.org/2000/svg"
 width="50.000000pt" height="50.000000pt" viewBox="0 0 50.000000 50.000000"
 preserveAspectRatio="xMidYMid meet">

<g transform="translate(0.000000,50.000000) scale(0.100000,-0.100000)"
fill="#000000" stroke="none">
<path d="M107 452 c-42 -31 -92 -98 -77 -107 5 -3 16 7 24 23 15 28 53 65 92
88 10 6 14 13 8 16 -5 3 -26 -6 -47 -20z"/>
<path d="M175 446 c-22 -9 -57 -33 -77 -54 -90 -96 -69 -244 44 -319 35 -24
52 -28 108 -28 56 0 73 4 108 28 23 15 54 46 69 69 24 35 28 52 28 108 0 56
-4 73 -28 108 -56 85 -161 121 -252 88z m178 -39 c64 -48 82 -84 82 -158 0
-56 -4 -71 -27 -102 -49 -63 -85 -82 -158 -82 -52 0 -72 5 -98 23 -104 74
-123 197 -44 284 49 54 84 69 154 65 42 -2 65 -10 91 -30z"/>
<path d="M239 330 c-1 -38 -2 -74 -3 -78 -1 -12 74 -76 81 -69 3 4 -8 22 -26
42 -28 33 -31 42 -31 105 0 92 -20 92 -21 0z"/>
<path d="M437 120 c-16 -23 -44 -51 -64 -63 -20 -11 -31 -23 -25 -25 20 -6 80
37 102 74 32 50 19 64 -13 14z"/>
</g>
</svg>
