<?xml version="1.0" standalone="no"?>
<!DOCTYPE svg PUBLIC "-//W3C//DTD SVG 20010904//EN"
 "http://www.w3.org/TR/2001/REC-SVG-20010904/DTD/svg10.dtd">
<svg version="1.0" xmlns="http://www.w3.org/2000/svg"
 width="64.000000pt" height="64.000000pt" viewBox="0 0 64.000000 64.000000"
 preserveAspectRatio="xMidYMid meet">

<g transform="translate(0.000000,64.000000) scale(0.100000,-0.100000)"
fill="#000000" stroke="none">
<path d="M72 466 l-52 -74 0 -121 0 -121 31 0 c21 0 40 -9 55 -25 29 -32 59
-32 88 0 22 24 28 25 141 25 113 0 119 -1 141 -25 29 -32 59 -32 88 0 13 14
31 25 40 25 14 0 16 13 16 87 0 81 -2 90 -37 150 l-37 63 -53 0 -53 0 0 45 0
45 -158 0 -158 0 -52 -74z m348 -76 l0 -130 -190 0 -190 0 0 62 c0 58 3 68 47
130 l46 68 144 0 143 0 0 -130z m60 -20 l0 -60 60 0 60 0 0 -70 c0 -38 -3 -70
-6 -70 -4 0 -17 11 -30 25 -29 32 -59 32 -88 0 -22 -24 -28 -25 -141 -25 -113
0 -119 1 -141 25 -29 32 -59 32 -88 0 -13 -14 -33 -25 -45 -25 -17 0 -21 6
-21 35 l0 35 200 0 200 0 0 95 c0 88 1 95 20 95 18 0 20 -7 20 -60z m83 10
l28 -50 -45 0 -46 0 0 50 c0 68 25 68 63 0z m-383 -195 c26 -32 -13 -81 -47
-59 -23 14 -28 41 -13 59 16 19 44 19 60 0z m370 0 c26 -32 -13 -81 -47 -59
-23 14 -28 41 -13 59 16 19 44 19 60 0z"/>
<path d="M217 459 c-21 -38 -13 -53 12 -20 13 17 20 20 26 11 4 -7 2 -16 -6
-21 -12 -8 -12 -11 1 -19 34 -22 60 -6 60 37 0 12 -3 13 -15 3 -12 -10 -17 -7
-26 14 -16 34 -30 33 -52 -5z"/>
<path d="M160 398 c-20 -9 -22 -12 -8 -15 16 -4 16 -7 3 -33 -8 -16 -15 -31
-15 -35 0 -3 20 -5 45 -5 25 0 45 5 45 10 0 6 -13 10 -30 10 -22 0 -28 4 -24
15 4 10 13 13 24 10 16 -5 17 -2 11 21 -8 33 -17 36 -51 22z"/>
<path d="M300 379 c0 -6 5 -19 10 -30 9 -16 7 -19 -9 -19 -14 0 -19 5 -15 15
9 21 -10 19 -31 -5 -17 -19 -17 -21 0 -40 21 -24 40 -26 31 -5 -4 12 3 15 29
15 41 0 42 4 15 48 -20 33 -30 40 -30 21z"/>
<path d="M480 270 c0 -5 11 -10 25 -10 14 0 25 5 25 10 0 6 -11 10 -25 10 -14
0 -25 -4 -25 -10z"/>
</g>
</svg>
