<?xml version="1.0" standalone="no"?>
<!DOCTYPE svg PUBLIC "-//W3C//DTD SVG 20010904//EN"
 "http://www.w3.org/TR/2001/REC-SVG-20010904/DTD/svg10.dtd">
<svg version="1.0" xmlns="http://www.w3.org/2000/svg"
 width="50.000000pt" height="50.000000pt" viewBox="0 0 50.000000 50.000000"
 preserveAspectRatio="xMidYMid meet">

<g transform="translate(0.000000,50.000000) scale(0.100000,-0.100000)"
fill="#000000" stroke="none">
<path d="M185 474 c-7 -8 -25 -18 -39 -24 -14 -5 -26 -16 -26 -24 0 -8 -8 -22
-17 -31 -20 -21 -26 -120 -9 -138 7 -7 20 -27 28 -45 16 -31 16 -35 -8 -88
-13 -30 -24 -57 -24 -59 0 -3 18 -5 40 -5 31 0 43 -5 56 -25 22 -33 30 -32 45
10 7 19 16 35 19 35 3 0 12 -16 19 -35 15 -42 23 -43 45 -10 13 20 25 25 56
25 22 0 40 2 40 5 0 2 -11 29 -24 59 -24 53 -24 57 -8 88 8 18 21 38 28 45 17
18 11 117 -9 138 -9 9 -17 23 -17 31 0 8 -12 19 -27 25 -15 6 -31 15 -34 21
-11 17 -117 18 -134 2z m126 -20 c8 -6 22 -14 32 -17 9 -4 21 -17 27 -31 5
-13 13 -27 18 -30 12 -7 9 -100 -4 -117 -6 -8 -14 -22 -17 -32 -4 -9 -15 -20
-24 -24 -10 -3 -24 -11 -32 -17 -17 -13 -110 -16 -117 -4 -3 5 -17 13 -30 18
-13 5 -29 21 -34 34 -5 13 -13 27 -18 30 -12 7 -9 100 4 117 6 8 14 22 17 32
4 9 17 21 31 27 13 5 27 13 30 18 7 12 100 9 117 -4z m-124 -290 c11 -10 25
-13 45 -9 l29 7 -14 -34 c-8 -19 -21 -47 -29 -63 -15 -28 -15 -28 -27 -7 -8
15 -21 22 -41 22 -17 0 -30 2 -30 4 0 9 42 96 46 96 3 0 12 -7 21 -16z m173
-30 c11 -25 20 -48 20 -50 0 -2 -13 -4 -30 -4 -20 0 -33 -7 -41 -22 -11 -21
-12 -21 -31 15 -21 42 -13 71 22 82 11 3 20 11 20 16 0 25 23 4 40 -37z"/>
<path d="M281 323 l-42 -66 -33 32 c-19 18 -36 28 -40 23 -3 -5 13 -26 37 -45
l43 -35 47 74 c25 40 42 76 38 78 -4 3 -27 -25 -50 -61z"/>
</g>
</svg>
