<?xml version="1.0" standalone="no"?>
<!DOCTYPE svg PUBLIC "-//W3C//DTD SVG 20010904//EN"
 "http://www.w3.org/TR/2001/REC-SVG-20010904/DTD/svg10.dtd">
<svg version="1.0" xmlns="http://www.w3.org/2000/svg"
 width="512.000000pt" height="512.000000pt" viewBox="0 0 512.000000 512.000000"
 preserveAspectRatio="xMidYMid meet">

<g transform="translate(0.000000,512.000000) scale(0.100000,-0.100000)"
fill="#000000" stroke="none">
<path d="M2345 5110 c-548 -61 -1024 -279 -1418 -649 -159 -149 -353 -403
-447 -585 -59 -113 -54 -192 17 -267 l25 -27 -45 -133 c-55 -163 -92 -340
-108 -515 l-12 -131 -44 -23 c-61 -33 -137 -119 -164 -188 -23 -56 -23 -66
-24 -414 0 -355 0 -358 22 -379 27 -27 75 -29 102 -5 19 17 20 36 23 369 3
341 4 353 25 394 31 57 87 100 149 114 30 7 99 10 170 7 96 -4 127 -9 160 -26
51 -26 90 -71 104 -120 8 -25 10 -228 8 -633 l-3 -595 -25 -37 c-14 -21 -43
-50 -64 -65 -39 -27 -40 -27 -211 -27 -170 0 -172 0 -213 27 -22 15 -53 48
-68 73 -24 41 -27 59 -32 163 -5 134 -14 152 -72 152 -64 0 -75 -23 -74 -154
1 -176 47 -279 158 -354 81 -54 134 -64 324 -60 156 3 171 5 224 30 73 34 142
103 176 176 l27 57 0 640 0 640 -28 53 c-37 70 -96 133 -152 163 -52 28 -52
27 -31 190 17 120 34 194 77 327 l31 92 51 0 c59 0 122 26 153 61 11 13 39 57
63 96 245 422 688 711 1185 773 129 17 370 7 496 -19 431 -88 794 -336 1028
-701 34 -52 72 -111 85 -131 32 -47 98 -79 164 -79 l52 0 20 -53 c48 -130 101
-386 101 -490 0 -32 -4 -37 -54 -61 -63 -31 -124 -93 -163 -168 l-28 -53 -3
-619 c-3 -682 -3 -675 59 -770 18 -26 54 -64 80 -84 l48 -36 -32 -59 c-17 -33
-64 -95 -105 -138 -102 -109 -218 -179 -353 -214 -77 -20 -82 -20 -103 16 -23
39 -92 89 -123 89 -32 0 -73 -43 -73 -75 0 -18 14 -40 41 -67 59 -58 69 -90
69 -212 0 -143 -19 -184 -103 -227 -35 -19 -56 -20 -272 -17 l-233 3 -39 31
c-62 49 -73 82 -73 213 0 98 3 118 22 153 38 67 75 82 214 88 142 6 164 17
164 81 0 63 -23 71 -182 67 -117 -3 -139 -6 -183 -27 -63 -32 -124 -93 -156
-156 -22 -47 -24 -60 -24 -210 0 -154 1 -162 27 -210 32 -62 103 -129 166
-158 43 -20 66 -22 290 -25 198 -3 252 0 297 12 63 19 128 66 170 123 20 27
38 42 53 42 13 1 58 8 100 17 410 84 750 379 887 770 22 62 25 65 83 95 68 34
129 96 161 165 38 79 42 171 39 754 -3 552 -3 555 -26 612 -26 64 -102 154
-154 182 l-34 18 -12 137 c-18 206 -52 366 -118 552 l-36 101 30 31 c63 65 70
152 21 249 -83 164 -224 359 -373 515 -127 133 -269 253 -300 253 -39 0 -76
-37 -76 -75 0 -30 11 -43 104 -124 184 -160 331 -333 451 -530 81 -134 89
-154 67 -180 -20 -25 -364 -181 -397 -181 -18 0 -33 16 -70 77 -85 142 -159
237 -275 353 -259 258 -566 419 -932 486 -117 22 -363 29 -483 15 -358 -42
-670 -177 -944 -406 -147 -123 -309 -322 -403 -494 -12 -21 -25 -31 -41 -31
-23 0 -368 150 -394 172 -25 20 -13 61 49 164 345 580 917 964 1593 1071 154
25 498 24 650 0 249 -41 467 -111 692 -224 123 -62 134 -65 162 -54 40 17 57
60 39 98 -10 22 -44 44 -153 98 -234 118 -476 194 -726 230 -133 20 -448 28
-564 15z m-1611 -1626 c56 -26 65 -39 46 -74 -36 -68 -99 -348 -115 -512 l-7
-68 -74 0 c-53 0 -74 4 -74 13 1 48 23 220 41 307 19 96 79 302 101 343 11 22
15 22 82 -9z m3789 -81 c55 -166 106 -424 107 -540 l0 -33 -73 0 -74 0 -12
113 c-15 138 -40 255 -87 399 -20 60 -34 111 -32 113 8 8 114 55 124 55 6 0
28 -48 47 -107z m161 -734 c55 -14 110 -59 139 -112 l22 -42 0 -595 0 -595
-28 -48 c-15 -26 -47 -60 -69 -75 -41 -27 -43 -27 -213 -27 -171 0 -172 0
-211 27 -21 15 -50 44 -64 65 l-25 37 -3 595 c-2 405 0 608 8 633 19 67 79
120 155 139 47 11 242 10 289 -2z m-114 -1659 c0 -23 -64 -148 -114 -224 -62
-93 -192 -223 -285 -286 -113 -76 -242 -128 -404 -164 l-28 -7 3 77 3 77 74
19 c241 62 463 242 566 456 l30 62 78 0 c46 0 77 -4 77 -10z"/>
<path d="M1501 2559 c-113 -22 -211 -129 -211 -232 0 -43 26 -67 72 -67 32 0
68 23 68 44 0 5 7 23 16 42 43 91 186 86 224 -7 28 -67 -13 -144 -239 -447
-126 -170 -138 -200 -93 -245 22 -21 28 -22 251 -22 211 0 231 1 250 19 25 22
28 73 7 102 -13 17 -31 20 -164 24 l-149 5 109 150 c174 240 212 339 174 452
-42 127 -182 208 -315 182z"/>
<path d="M2224 2546 c-39 -17 -61 -45 -144 -186 -138 -235 -230 -407 -230
-429 0 -12 11 -33 25 -46 24 -25 27 -25 195 -25 l170 0 0 -93 c0 -85 2 -96 23
-115 31 -29 72 -28 102 3 23 22 25 32 25 115 0 90 0 90 25 90 33 0 75 42 75
75 0 33 -42 75 -75 75 l-25 0 0 220 c0 247 -6 275 -62 310 -38 23 -61 24 -104
6z m16 -376 l0 -160 -90 0 c-49 0 -90 3 -90 7 0 7 173 313 177 313 2 0 3 -72
3 -160z"/>
<path d="M2973 2546 c-24 -18 -343 -804 -343 -847 0 -56 75 -88 119 -51 12 10
83 174 181 422 164 412 172 439 136 469 -23 20 -70 23 -93 7z"/>
<path d="M3296 2538 c-36 -33 -39 -75 -6 -108 18 -18 33 -20 190 -20 94 0 170
-2 170 -4 0 -3 -67 -159 -150 -347 -82 -188 -150 -350 -150 -361 0 -27 44 -68
73 -68 14 0 34 8 46 18 28 22 371 801 371 841 0 20 -9 36 -26 50 -25 20 -39
21 -260 21 -227 0 -233 -1 -258 -22z"/>
</g>
</svg>
