<?xml version="1.0" standalone="no"?>
<!DOCTYPE svg PUBLIC "-//W3C//DTD SVG 20010904//EN"
 "http://www.w3.org/TR/2001/REC-SVG-20010904/DTD/svg10.dtd">
<svg version="1.0" xmlns="http://www.w3.org/2000/svg"
 width="100.000000pt" height="100.000000pt" viewBox="0 0 100.000000 100.000000"
 preserveAspectRatio="xMidYMid meet">

<g transform="translate(0.000000,100.000000) scale(0.100000,-0.100000)"
fill="#000000" stroke="none">
<path d="M417 808 c-31 -11 -167 -139 -167 -157 0 -9 -35 -53 -59 -74 -68 -60
-71 -65 -71 -113 0 -44 3 -50 56 -100 47 -45 59 -52 75 -43 17 9 19 22 19 144
0 80 -4 136 -10 140 -15 9 17 60 68 106 32 30 48 39 65 34 19 -5 20 -5 5 5
-43 27 -1 51 102 60 l75 7 -65 1 c-36 0 -78 -4 -93 -10z m-167 -348 c0 -87 -4
-130 -11 -130 -6 0 -13 9 -16 20 -3 11 -11 20 -17 20 -7 0 -24 13 -39 28 -40
41 -37 93 6 135 l32 32 6 -55 6 -55 1 68 c2 52 5 67 17 67 13 0 15 -21 15
-130z"/>
<path d="M618 793 c6 -2 12 -14 12 -25 0 -17 -4 -19 -22 -13 -39 12 -155 18
-172 8 -11 -6 6 -8 46 -5 81 5 166 -19 199 -56 55 -60 53 -55 50 -217 -2 -106
1 -155 9 -160 8 -5 6 -15 -6 -33 -28 -44 -88 -80 -99 -62 -4 6 -39 10 -80 10
-55 0 -74 -4 -79 -15 -15 -40 19 -59 95 -52 41 3 40 4 -12 5 -56 2 -88 20 -74
42 3 5 38 10 77 10 70 0 70 0 65 -25 -4 -23 -3 -24 12 -12 9 8 26 18 38 21 12
4 36 24 52 44 17 20 41 49 54 64 12 15 35 35 50 44 60 33 72 130 20 176 -14
13 -36 33 -48 46 -12 12 -27 22 -32 22 -6 0 -16 14 -24 31 -7 17 -33 52 -59
78 -25 25 -49 54 -53 64 -3 9 -12 17 -19 16 -10 0 -10 -2 0 -6z m164 -270 c2
-64 2 -65 5 -15 2 28 9 52 14 52 17 0 58 -47 65 -74 9 -39 -9 -79 -49 -105
-20 -13 -37 -31 -37 -39 0 -7 -6 -12 -12 -10 -9 3 -14 41 -16 131 -2 109 0
127 13 127 12 0 15 -14 17 -67z"/>
<path d="M537 473 c-21 -43 -30 -69 -21 -58 23 30 66 115 62 126 -2 5 -20 -25
-41 -68z"/>
<path d="M601 528 c0 -13 3 -17 6 -10 6 15 53 16 53 1 0 -6 -12 -33 -27 -60
-14 -27 -24 -52 -20 -55 9 -9 69 116 63 132 -3 8 -20 14 -41 14 -30 0 -35 -3
-34 -22z"/>
<path d="M327 527 c-8 -22 4 -29 18 -10 13 17 45 12 45 -8 0 -6 -16 -25 -35
-42 -19 -17 -35 -39 -35 -49 0 -15 8 -18 43 -16 36 1 38 2 10 5 -42 5 -42 25
-2 53 23 17 29 29 27 49 -2 21 -9 27 -34 29 -21 2 -33 -2 -37 -11z"/>
<path d="M432 495 c-28 -58 -28 -65 3 -65 16 0 25 -6 25 -15 0 -21 17 -19 23
4 6 25 -3 71 -14 71 -5 0 -9 -9 -9 -20 0 -11 -7 -20 -15 -20 -19 0 -19 3 5 50
11 22 17 40 12 40 -4 0 -18 -20 -30 -45z"/>
</g>
</svg>
