<?xml version="1.0" standalone="no"?>
<!DOCTYPE svg PUBLIC "-//W3C//DTD SVG 20010904//EN"
 "http://www.w3.org/TR/2001/REC-SVG-20010904/DTD/svg10.dtd">
<svg version="1.0" xmlns="http://www.w3.org/2000/svg"
 width="64.000000pt" height="64.000000pt" viewBox="0 0 64.000000 64.000000"
 preserveAspectRatio="xMidYMid meet">

<g transform="translate(0.000000,64.000000) scale(0.100000,-0.100000)"
fill="#000000" stroke="none">
<path d="M278 533 c-8 -10 -25 -35 -37 -56 -19 -30 -21 -40 -11 -52 19 -23 28
-18 58 30 15 25 29 45 32 45 3 0 18 -21 33 -46 22 -36 25 -49 16 -60 -17 -21
-4 -41 36 -54 43 -14 53 -8 65 44 8 38 -1 53 -32 48 -9 -2 -19 6 -23 16 -3 11
-19 38 -35 61 -34 46 -75 55 -102 24z"/>
<path d="M163 385 c-35 -15 -40 -24 -21 -43 8 -8 4 -26 -20 -71 -18 -32 -32
-64 -32 -70 0 -7 11 -23 25 -36 38 -39 145 -34 145 5 0 15 -11 20 -55 25 -30
4 -55 11 -55 16 0 18 51 90 63 88 40 -5 43 3 26 64 -11 41 -24 45 -76 22z"/>
<path d="M454 306 c-3 -8 4 -33 16 -55 11 -23 18 -46 15 -51 -3 -6 -29 -10
-57 -10 -41 0 -51 3 -55 20 -8 29 -35 25 -68 -10 l-29 -30 29 -30 c31 -32 65
-40 65 -15 0 12 14 15 64 15 108 0 135 44 82 134 -27 46 -52 59 -62 32z"/>
</g>
</svg>
