<?xml version="1.0" standalone="no"?>
<!DOCTYPE svg PUBLIC "-//W3C//DTD SVG 20010904//EN"
 "http://www.w3.org/TR/2001/REC-SVG-20010904/DTD/svg10.dtd">
<svg version="1.0" xmlns="http://www.w3.org/2000/svg"
 width="512.000000pt" height="512.000000pt" viewBox="0 0 512.000000 512.000000"
 preserveAspectRatio="xMidYMid meet">

<g transform="translate(0.000000,512.000000) scale(0.100000,-0.100000)"
fill="#000000" stroke="none">
<path d="M2080 5109 c-412 -20 -866 -66 -995 -100 -227 -59 -422 -174 -585
-346 -171 -178 -290 -426 -320 -665 -52 -424 -55 -1588 -4 -2138 7 -78 45
-236 74 -311 88 -222 253 -429 449 -562 165 -111 336 -172 568 -201 70 -9 143
-19 160 -22 l33 -5 2 -377 3 -378 625 353 625 352 95 1 c275 1 974 56 1160 91
245 46 480 175 651 357 170 181 287 423 318 659 61 468 55 1960 -10 2258 -100
461 -439 816 -892 934 -298 78 -1337 131 -1957 100z m910 -219 c314 -15 763
-52 910 -76 119 -19 305 -95 407 -166 68 -46 171 -146 225 -218 65 -86 143
-246 168 -344 41 -164 62 -562 62 -1176 0 -620 -20 -1007 -63 -1175 -25 -101
-102 -260 -167 -346 -137 -180 -345 -315 -558 -363 -180 -40 -870 -96 -1184
-96 l-128 0 -488 -275 -489 -275 -3 289 -2 290 -43 5 c-23 3 -127 15 -232 26
-104 12 -224 29 -266 40 -354 87 -631 364 -719 719 -81 324 -81 2009 -1 2323
60 233 209 449 399 577 168 113 316 158 617 190 547 56 1074 73 1555 51z"/>
<path d="M2560 4351 l0 -108 46 -7 c26 -3 64 -6 84 -6 62 0 204 -28 303 -60
452 -145 744 -534 775 -1035 l7 -110 99 -3 c55 -1 104 -1 110 1 8 3 9 41 4
124 -39 653 -443 1136 -1063 1272 -75 16 -279 40 -347 41 -16 0 -18 -12 -18
-109z"/>
<path d="M1508 4120 c-96 -17 -156 -54 -268 -168 -119 -121 -168 -201 -200
-328 -25 -98 -28 -363 -5 -523 118 -819 743 -1461 1555 -1596 147 -25 447 -31
540 -11 192 40 419 216 498 383 24 51 27 70 27 158 0 149 -16 175 -240 402
-158 159 -189 186 -250 215 -64 30 -78 33 -165 33 -115 0 -172 -22 -265 -104
-95 -83 -125 -96 -230 -96 -122 0 -148 15 -316 184 -117 117 -139 144 -157
194 -44 116 -23 207 71 318 78 90 102 136 118 223 15 80 2 160 -37 238 -29 56
-295 335 -386 403 -86 65 -191 92 -290 75z m106 -220 c12 0 91 -71 198 -177
190 -189 207 -215 194 -287 -4 -23 -28 -60 -65 -103 -74 -87 -107 -145 -131
-230 -35 -121 -21 -253 41 -375 23 -45 69 -100 176 -209 157 -160 208 -199
311 -236 177 -65 370 -23 521 112 68 61 120 81 178 70 32 -6 64 -32 206 -173
93 -92 175 -179 183 -194 18 -35 18 -101 0 -136 -20 -39 -162 -172 -218 -205
-66 -38 -156 -57 -281 -57 -468 0 -883 167 -1202 485 -321 322 -485 725 -485
1192 0 219 24 283 159 424 77 81 133 114 176 104 11 -3 29 -5 39 -5z"/>
<path d="M2560 3911 c0 -123 -2 -121 92 -121 101 0 263 -47 356 -102 190 -114
300 -309 320 -571 l7 -92 109 -3 109 -3 -6 108 c-16 296 -149 555 -362 708
-149 107 -307 158 -557 180 l-68 6 0 -110z"/>
<path d="M2562 3463 l3 -108 70 -6 c164 -15 234 -85 252 -254 l8 -70 108 -3
107 -3 0 53 c0 77 -26 184 -59 253 -73 148 -241 244 -429 245 l-63 0 3 -107z"/>
</g>
</svg>
