<?xml version="1.0" standalone="no"?>
<!DOCTYPE svg PUBLIC "-//W3C//DTD SVG 20010904//EN"
 "http://www.w3.org/TR/2001/REC-SVG-20010904/DTD/svg10.dtd">
<svg version="1.0" xmlns="http://www.w3.org/2000/svg"
 width="512.000000pt" height="512.000000pt" viewBox="0 0 512.000000 512.000000"
 preserveAspectRatio="xMidYMid meet">

<g transform="translate(0.000000,512.000000) scale(0.100000,-0.100000)"
fill="#000000" stroke="none">
<path d="M2405 5114 c-16 -2 -73 -9 -125 -15 -840 -94 -1611 -626 -1990 -1374
-361 -710 -356 -1572 12 -2297 l59 -117 -180 -653 c-99 -359 -179 -654 -178
-655 2 -1 305 77 675 174 l672 175 93 -45 c266 -129 544 -212 832 -248 146
-18 455 -15 605 5 937 126 1727 733 2064 1586 122 310 171 578 171 935 -1 238
-12 349 -56 550 -91 416 -312 843 -593 1142 -40 43 -77 85 -82 95 -13 24 -155
149 -259 228 -193 147 -446 286 -670 368 -131 48 -359 105 -505 127 -99 15
-480 28 -545 19z m520 -443 c449 -78 829 -275 1151 -596 311 -310 506 -686
589 -1140 26 -137 31 -459 11 -614 -69 -522 -316 -981 -709 -1317 -382 -326
-835 -504 -1328 -521 -401 -14 -759 75 -1120 277 l-106 59 -397 -103 c-224
-58 -396 -98 -396 -92 0 6 47 181 105 389 l104 378 -43 67 c-434 672 -443
1523 -24 2221 168 278 429 543 703 711 94 58 312 161 409 194 150 51 344 93
511 110 104 11 424 -3 540 -23z"/>
<path d="M1575 3741 c-82 -37 -202 -198 -258 -344 -30 -79 -32 -88 -32 -237 0
-150 1 -158 33 -250 61 -175 157 -336 326 -544 435 -538 718 -743 1296 -937
274 -92 499 -68 710 76 133 90 185 179 209 358 14 99 6 134 -38 163 -20 13
-52 27 -71 31 -19 3 -114 44 -210 91 -219 105 -261 122 -310 122 -38 0 -42 -4
-133 -117 -158 -198 -168 -208 -214 -207 -53 2 -267 105 -392 189 -211 141
-412 356 -531 568 -40 72 -37 87 40 176 72 83 136 182 145 221 9 41 -215 581
-261 628 l-32 32 -118 0 c-94 0 -128 -4 -159 -19z"/>
</g>
</svg>
